<svg xmlns="http://www.w3.org/2000/svg" viewBox="0 0 500 500"><g id="freepik--background-complete--inject-61"><rect x="416.78" y="398.49" width="33.12" height="0.25" style="fill:#ebebeb"></rect><rect x="322.53" y="401.21" width="8.69" height="0.25" style="fill:#ebebeb"></rect><rect x="396.59" y="389.21" width="19.19" height="0.25" style="fill:#ebebeb"></rect><rect x="52.46" y="390.89" width="43.19" height="0.25" style="fill:#ebebeb"></rect><rect x="104.56" y="390.89" width="6.33" height="0.25" style="fill:#ebebeb"></rect><rect x="131.47" y="395.11" width="93.68" height="0.25" style="fill:#ebebeb"></rect><path d="M237,337.8H43.92a5.71,5.71,0,0,1-5.71-5.71V60.66A5.71,5.71,0,0,1,43.92,55H237a5.71,5.71,0,0,1,5.71,5.71V332.09A5.71,5.71,0,0,1,237,337.8ZM43.92,55.2a5.47,5.47,0,0,0-5.46,5.46V332.09a5.47,5.47,0,0,0,5.46,5.46H237a5.47,5.47,0,0,0,5.46-5.46V60.66A5.47,5.47,0,0,0,237,55.2Z" style="fill:#ebebeb"></path><path d="M453.31,337.8H260.21a5.72,5.72,0,0,1-5.71-5.71V60.66A5.72,5.72,0,0,1,260.21,55h193.1A5.71,5.71,0,0,1,459,60.66V332.09A5.71,5.71,0,0,1,453.31,337.8ZM260.21,55.2a5.47,5.47,0,0,0-5.46,5.46V332.09a5.47,5.47,0,0,0,5.46,5.46h193.1a5.47,5.47,0,0,0,5.46-5.46V60.66a5.47,5.47,0,0,0-5.46-5.46Z" style="fill:#ebebeb"></path><rect y="382.4" width="500" height="0.25" style="fill:#ebebeb"></rect><polygon points="359.05 206.91 384.15 206.91 363.95 92.35 338.85 92.35 359.05 206.91" style="fill:#fafafa"></polygon><polygon points="344.44 206.91 351.2 206.91 331 92.35 324.24 92.35 344.44 206.91" style="fill:#fafafa"></polygon><polygon points="271 208.89 277.95 208.89 257.19 91.16 250.24 91.16 271 208.89" style="fill:#fafafa"></polygon><polygon points="284.85 208.89 297.96 208.89 277.2 91.16 264.1 91.16 284.85 208.89" style="fill:#fafafa"></polygon><path d="M320,90.57h82V208.91H320Zm75.53,6.49H326.44V202.42h69.05Z" style="fill:#e0e0e0"></path><path d="M234.7,87.32H405.22V212.15H234.7Zm164,6.49H241.18V205.66H398.73Z" style="fill:#f5f5f5"></path><rect x="83.14" y="273.01" width="185.13" height="99.63" transform="translate(351.4 645.66) rotate(180)" style="fill:#e6e6e6"></rect><rect x="253.43" y="376.78" width="11.64" height="8.79" transform="translate(518.49 762.36) rotate(180)" style="fill:#e6e6e6"></rect><rect x="69.01" y="265.6" width="11.64" height="119.97" transform="translate(149.65 651.18) rotate(180)" style="fill:#e6e6e6"></rect><path d="M80.5,265.6v120h6.21v-6.72H265.06v6.72h6.21v-120H80.5Zm6.21,10.86h86.07v41.67H86.71ZM265.06,368H179V276.46h86.07ZM86.71,368V324.34h86.07V368Z" style="fill:#f0f0f0"></path><rect x="178.99" y="280.94" width="80.26" height="87.05" transform="translate(438.23 648.94) rotate(180)" style="fill:#f5f5f5"></rect><path d="M182.62,321.86a3.73,3.73,0,1,0,3.73-3.73A3.73,3.73,0,0,0,182.62,321.86Z" style="fill:#fafafa"></path><path d="M186.35,325.59a3.73,3.73,0,0,0,3.38-2.18,3.67,3.67,0,0,1,.35,1.55,3.73,3.73,0,0,1-7.46,0,3.67,3.67,0,0,1,.35-1.55A3.73,3.73,0,0,0,186.35,325.59Z" style="fill:#e0e0e0"></path><polygon points="228.12 367.99 208.97 367.99 199.82 280.94 218.97 280.94 228.12 367.99" style="fill:#fafafa"></polygon><polygon points="204.07 367.99 200.25 367.99 191.11 280.94 194.92 280.94 204.07 367.99" style="fill:#fafafa"></polygon><rect x="153.38" y="280.86" width="7.58" height="37.23" transform="translate(314.35 598.95) rotate(180)" style="fill:#fafafa"></rect><rect x="121.94" y="280.86" width="7.58" height="37.23" transform="translate(251.46 598.95) rotate(180)" style="fill:#f5f5f5"></rect><rect x="145.8" y="283.47" width="7.58" height="34.62" transform="translate(299.18 601.56) rotate(180)" style="fill:#f5f5f5"></rect><rect x="129.52" y="283.47" width="7.58" height="34.62" transform="translate(266.63 601.56) rotate(180)" style="fill:#fafafa"></rect><rect x="137.11" y="280.86" width="4.9" height="37.23" transform="translate(279.11 598.95) rotate(180)" style="fill:#ebebeb"></rect><rect x="142.01" y="283.47" width="3.79" height="34.62" transform="translate(287.8 601.56) rotate(180)" style="fill:#fafafa"></rect><rect x="114.35" y="280.86" width="7.58" height="37.23" transform="translate(236.29 598.95) rotate(180)" style="fill:#ebebeb"></rect><rect x="106.77" y="283.47" width="7.58" height="34.62" transform="translate(221.12 601.56) rotate(180)" style="fill:#e6e6e6"></rect><rect x="90.49" y="283.47" width="7.58" height="34.62" transform="translate(188.56 601.56) rotate(180)" style="fill:#e6e6e6"></rect><rect x="98.07" y="280.86" width="4.9" height="37.23" transform="translate(201.05 598.95) rotate(180)" style="fill:#fafafa"></rect><rect x="102.98" y="283.47" width="3.79" height="34.62" transform="translate(209.74 601.56) rotate(180)" style="fill:#ebebeb"></rect><rect x="86.7" y="281.74" width="3.79" height="36.35" transform="translate(177.19 599.83) rotate(180)" style="fill:#ebebeb"></rect><rect x="86.7" y="330.76" width="7.58" height="37.23" style="fill:#ebebeb"></rect><rect x="118.14" y="330.76" width="7.58" height="37.23" style="fill:#fafafa"></rect><rect x="94.28" y="333.38" width="7.58" height="34.62" style="fill:#fafafa"></rect><rect x="110.56" y="333.38" width="7.58" height="34.62" style="fill:#ebebeb"></rect><rect x="105.66" y="330.76" width="4.9" height="37.23" style="fill:#fafafa"></rect><rect x="101.87" y="333.38" width="3.79" height="34.62" style="fill:#f5f5f5"></rect><rect x="125.73" y="330.76" width="7.58" height="37.23" style="fill:#ebebeb"></rect><rect x="133.31" y="333.38" width="7.58" height="34.62" style="fill:#f5f5f5"></rect><rect x="149.59" y="333.38" width="7.58" height="34.62" style="fill:#e6e6e6"></rect><rect x="144.69" y="330.76" width="4.9" height="37.23" style="fill:#fafafa"></rect><rect x="160.97" y="330.76" width="4.9" height="37.23" style="fill:#fafafa"></rect><rect x="140.9" y="333.38" width="3.79" height="34.62" style="fill:#ebebeb"></rect><rect x="157.18" y="331.64" width="3.79" height="36.35" style="fill:#ebebeb"></rect><rect x="312.42" y="333.09" width="123.79" height="40.67" transform="translate(748.63 706.85) rotate(180)" style="fill:#ebebeb"></rect><rect x="426.28" y="376.53" width="7.78" height="5.88" transform="translate(860.35 758.93) rotate(180)" style="fill:#e6e6e6"></rect><rect x="302.97" y="328.13" width="7.78" height="54.27" transform="translate(613.71 710.54) rotate(180)" style="fill:#e6e6e6"></rect><path d="M310.65,328.13v54.28h4.15v-4.5H434.06v4.5h4.15V328.13H310.65Zm123.41,42.52H376.51V335.39h57.55Zm-61.7,0H314.8V335.39h57.56Z" style="fill:#f5f5f5"></path><rect x="98.43" y="200.82" width="3.08" height="63" transform="translate(-22.05 10.78) rotate(-5.56)" style="fill:#e0e0e0"></rect><rect x="103.76" y="207.78" width="2.68" height="54.67" style="fill:#e0e0e0"></rect><rect x="108.77" y="198.92" width="3.08" height="63" transform="translate(9.18 -4.18) rotate(2.26)" style="fill:#e0e0e0"></rect><path d="M111,266.2H100.2a8.55,8.55,0,0,1-8.54-8L90.3,235.62h30.57l-1.36,22.54A8.55,8.55,0,0,1,111,266.2Z" style="fill:#f5f5f5"></path><path d="M93.8,206.7H72a.37.37,0,0,1-.1-.73l14.51-3.69a.37.37,0,0,0,.11-.67L69.84,190.78a.37.37,0,0,1,.34-.66l17.71,7.2a.37.37,0,0,0,.47-.5l-8.5-17.74a.37.37,0,0,1,.6-.41L93.4,192.93a.38.38,0,0,0,.64-.16l4.48-17.57a.37.37,0,0,1,.73.11l-.88,19.48a.37.37,0,0,0,.54.34l13.5-7.44a.37.37,0,0,1,.43.59l-12.43,12.05a.37.37,0,0,0,.32.63l10.55-1.7a.37.37,0,0,1,.19.71l-17.54,6.7A.31.31,0,0,1,93.8,206.7Z" style="fill:#f5f5f5"></path><path d="M115.74,206.88l-21.42-4a.37.37,0,0,1,0-.73l14.94-1a.37.37,0,0,0,.23-.64L95.11,186.84a.37.37,0,0,1,.45-.58l16.1,10.32a.37.37,0,0,0,.55-.41l-5.11-19a.37.37,0,0,1,.67-.29l10.11,16.39a.37.37,0,0,0,.65,0l7.63-16.45a.37.37,0,0,1,.7.24l-4.44,19a.37.37,0,0,0,.47.44l14.63-4.84a.37.37,0,0,1,.32.66l-14.43,9.57a.37.37,0,0,0,.2.67l10.68.26a.37.37,0,0,1,.06.74l-18.47,3.37Z" style="fill:#ebebeb"></path><path d="M104.94,210.26l-16.27-3a.28.28,0,0,1,0-.56l11.35-.73a.28.28,0,0,0,.17-.48L89.27,195a.28.28,0,0,1,.34-.44l12.23,7.84a.28.28,0,0,0,.42-.31L98.38,187.7a.28.28,0,0,1,.51-.22l7.67,12.45a.29.29,0,0,0,.5,0l5.8-12.5a.28.28,0,0,1,.53.18L110,202a.28.28,0,0,0,.36.33l11.12-3.68a.28.28,0,0,1,.24.5l-11,7.27a.28.28,0,0,0,.15.52l8.11.19a.28.28,0,0,1,0,.56l-14,2.57Z" style="fill:#e0e0e0"></path><path d="M417.17,314H326.69a4.78,4.78,0,0,1-4.72-4.49l-3-56.71a4.21,4.21,0,0,1,4.25-4.49h90.47a4.79,4.79,0,0,1,4.73,4.49l3,56.71A4.21,4.21,0,0,1,417.17,314Z" style="fill:#e0e0e0"></path><polygon points="380.54 328.13 369.14 328.13 371.44 309.13 380.54 309.13 380.54 328.13" style="fill:#e0e0e0"></polygon><path d="M390.46,326.53H369.33l-.19,1.6h21.32a.8.8,0,0,0,0-1.6Z" style="fill:#ebebeb"></path><path d="M417.93,314H327.46a4.79,4.79,0,0,1-4.73-4.49l-3-56.71a4.22,4.22,0,0,1,4.26-4.49h90.47a4.78,4.78,0,0,1,4.72,4.49l3,56.71A4.22,4.22,0,0,1,417.93,314Z" style="fill:#ebebeb"></path><path d="M327.34,311.71h90.47a2.07,2.07,0,0,0,2.08-2.2l-3-56.71a2.35,2.35,0,0,0-2.31-2.2H324.14a2.06,2.06,0,0,0-2.08,2.2l3,56.71A2.34,2.34,0,0,0,327.34,311.71Z" style="fill:#fafafa"></path></g><g id="freepik--Shadow--inject-61"><ellipse id="freepik--path--inject-61" cx="245.18" cy="412.39" rx="193.89" ry="11.32" style="fill:#f5f5f5"></ellipse></g><g id="freepik--Comic--inject-61"><polygon points="221.81 190.17 206.8 81.4 137.61 81.4 137.61 215.54 221.81 190.17" style="fill:#407BFF"></polygon><g style="opacity:0.4"><polygon points="211.46 115.17 211.36 114.48 137.61 118.11 137.61 118.81 211.46 115.17" style="fill:#fff"></polygon><polygon points="212.89 125.56 212.77 124.64 137.61 132.41 137.61 133.34 212.89 125.56" style="fill:#fff"></polygon><polygon points="214.84 139.63 213.57 130.48 137.61 142.36 137.61 151.71 214.84 139.63" style="fill:#fff"></polygon><polygon points="137.61 91.63 208.81 96.02 208.04 90.42 137.61 86.08 137.61 91.63" style="fill:#fff"></polygon><polygon points="210.46 107.89 209.43 100.5 137.61 100.09 137.61 107.48 210.46 107.89" style="fill:#fff"></polygon><polygon points="137.61 188.56 218.14 163.59 218.01 162.66 137.61 187.59 137.61 188.56" style="fill:#fff"></polygon><polygon points="220.53 180.94 220.41 179.99 137.61 213.8 137.61 214.79 220.53 180.94" style="fill:#fff"></polygon><polygon points="137.61 204.24 219.68 174.73 218.9 169.12 137.61 198.35 137.61 204.24" style="fill:#fff"></polygon><polygon points="217.02 155.44 216.63 152.67 137.61 173.2 137.61 176.06 217.02 155.44" style="fill:#fff"></polygon><polygon points="215.72 146.08 215.34 143.33 137.61 159.53 137.61 162.36 215.72 146.08" style="fill:#fff"></polygon></g><path d="M140,152.15v5.66c-5.94,2.46-8.92,3.78-14.86,6.62v-5c3-6.46,4.44-9.52,7.4-15.33-2.87.9-4.3,1.37-7.17,2.36V140.1c5.71-1.7,8.56-2.47,14.26-3.83v4.49c-3,5.43-4.44,8.3-7.39,14.38C135.33,153.89,136.88,153.3,140,152.15Z" style="fill:#263238"></path><path d="M152.6,149.54c-2.46.81-3.69,1.23-6.15,2.11-.43,1.58-.65,2.38-1.08,4-2.22.87-3.33,1.32-5.54,2.24,2.82-9.84,4.24-14.49,7.06-23.24,2.15-.45,3.22-.66,5.36-1,2.83,7.26,4.24,10.66,7.07,17-2.25.75-3.38,1.13-5.63,1.94C153.25,151.35,153,150.75,152.6,149.54Zm-1.5-4.27c-.63-1.8-.94-2.71-1.57-4.55-.63,2.16-.95,3.26-1.57,5.49C149.21,145.82,149.84,145.64,151.1,145.27Z" style="fill:#263238"></path><path d="M171.89,131.5a5.07,5.07,0,0,1,2.56,1.77,4.87,4.87,0,0,1,.9,3,6.2,6.2,0,0,1-.9,3.25,8.15,8.15,0,0,1-2.56,2.61,12.3,12.3,0,0,1-3.91,1.68l-2.33.6v4.2c-2.18.67-3.27,1-5.45,1.73V132.25c3.11-.47,4.67-.68,7.78-1.05A8.94,8.94,0,0,1,171.89,131.5Zm-2.59,7.17a2.18,2.18,0,0,0,.56-1.52,1.54,1.54,0,0,0-.56-1.32,2.14,2.14,0,0,0-1.66-.24l-2,.34v4l2-.42A3,3,0,0,0,169.3,138.67Z" style="fill:#263238"></path><path d="M188.82,130.25a5.55,5.55,0,0,1,2.56,1.56,3.58,3.58,0,0,1,.9,2.44,4.16,4.16,0,0,1-.9,2.58,7.36,7.36,0,0,1-2.56,2,14,14,0,0,1-3.9,1.26l-2.34.43V144c-2.18.51-3.27.77-5.45,1.33V130.29c3.11-.24,4.67-.34,7.79-.49A11,11,0,0,1,188.82,130.25ZM186.23,136a1.54,1.54,0,0,0,.56-1.22,1.23,1.23,0,0,0-.56-1.1,2.61,2.61,0,0,0-1.66-.26l-2,.19v3.3l2-.27A3.06,3.06,0,0,0,186.23,136Z" style="fill:#263238"></path><path d="M205.75,130.21a6.67,6.67,0,0,1,2.57,1.36,2.54,2.54,0,0,1,.9,1.9,2.58,2.58,0,0,1-.9,1.92,7.15,7.15,0,0,1-2.57,1.46,16.84,16.84,0,0,1-3.9.85l-2.33.26v2.73c-2.19.35-3.28.54-5.46.94V129.56c3.12,0,4.67,0,7.79.06A14.68,14.68,0,0,1,205.75,130.21Zm-2.59,4.3a1,1,0,0,0,.56-.92,1,1,0,0,0-.56-.89,3.45,3.45,0,0,0-1.66-.29l-2,.06c0,1,0,1.56,0,2.6l2-.13A3.5,3.5,0,0,0,203.16,134.51Z" style="fill:#263238"></path><path d="M210.42,130c2.49.15,3.74.25,6.24.47-.42,2-.63,3-1,5-1.67,0-2.5.07-4.16.14C211,133.42,210.83,132.29,210.42,130Zm.92,8.76c-.57-.24-.85-.59-.85-1a1.39,1.39,0,0,1,.85-1.17,4.79,4.79,0,0,1,2.2-.53,5.09,5.09,0,0,1,2.19.3c.57.24.86.55.86.95s-.29.73-.86,1.05a5.62,5.62,0,0,1-2.19.63A4.55,4.55,0,0,1,211.34,138.76Z" style="fill:#263238"></path><g style="opacity:0.9"><path d="M140,152.15v5.66c-5.94,2.46-8.92,3.78-14.86,6.62v-5c3-6.46,4.44-9.52,7.4-15.33-2.87.9-4.3,1.37-7.17,2.36V140.1c5.71-1.7,8.56-2.47,14.26-3.83v4.49c-3,5.43-4.44,8.3-7.39,14.38C135.33,153.89,136.88,153.3,140,152.15Z" style="fill:#fff"></path><path d="M152.6,149.54c-2.46.81-3.69,1.23-6.15,2.11-.43,1.58-.65,2.38-1.08,4-2.22.87-3.33,1.32-5.54,2.24,2.82-9.84,4.24-14.49,7.06-23.24,2.15-.45,3.22-.66,5.36-1,2.83,7.26,4.24,10.66,7.07,17-2.25.75-3.38,1.13-5.63,1.94C153.25,151.35,153,150.75,152.6,149.54Zm-1.5-4.27c-.63-1.8-.94-2.71-1.57-4.55-.63,2.16-.95,3.26-1.57,5.49C149.21,145.82,149.84,145.64,151.1,145.27Z" style="fill:#fff"></path><path d="M171.89,131.5a5.07,5.07,0,0,1,2.56,1.77,4.87,4.87,0,0,1,.9,3,6.2,6.2,0,0,1-.9,3.25,8.15,8.15,0,0,1-2.56,2.61,12.3,12.3,0,0,1-3.91,1.68l-2.33.6v4.2c-2.18.67-3.27,1-5.45,1.73V132.25c3.11-.47,4.67-.68,7.78-1.05A8.94,8.94,0,0,1,171.89,131.5Zm-2.59,7.17a2.18,2.18,0,0,0,.56-1.52,1.54,1.54,0,0,0-.56-1.32,2.14,2.14,0,0,0-1.66-.24l-2,.34v4l2-.42A3,3,0,0,0,169.3,138.67Z" style="fill:#fff"></path><path d="M188.82,130.25a5.55,5.55,0,0,1,2.56,1.56,3.58,3.58,0,0,1,.9,2.44,4.16,4.16,0,0,1-.9,2.58,7.36,7.36,0,0,1-2.56,2,14,14,0,0,1-3.9,1.26l-2.34.43V144c-2.18.51-3.27.77-5.45,1.33V130.29c3.11-.24,4.67-.34,7.79-.49A11,11,0,0,1,188.82,130.25ZM186.23,136a1.54,1.54,0,0,0,.56-1.22,1.23,1.23,0,0,0-.56-1.1,2.61,2.61,0,0,0-1.66-.26l-2,.19v3.3l2-.27A3.06,3.06,0,0,0,186.23,136Z" style="fill:#fff"></path><path d="M205.75,130.21a6.67,6.67,0,0,1,2.57,1.36,2.54,2.54,0,0,1,.9,1.9,2.58,2.58,0,0,1-.9,1.92,7.15,7.15,0,0,1-2.57,1.46,16.84,16.84,0,0,1-3.9.85l-2.33.26v2.73c-2.19.35-3.28.54-5.46.94V129.56c3.12,0,4.67,0,7.79.06A14.68,14.68,0,0,1,205.75,130.21Zm-2.59,4.3a1,1,0,0,0,.56-.92,1,1,0,0,0-.56-.89,3.45,3.45,0,0,0-1.66-.29l-2,.06c0,1,0,1.56,0,2.6l2-.13A3.5,3.5,0,0,0,203.16,134.51Z" style="fill:#fff"></path><path d="M210.42,130c2.49.15,3.74.25,6.24.47-.42,2-.63,3-1,5-1.67,0-2.5.07-4.16.14C211,133.42,210.83,132.29,210.42,130Zm.92,8.76c-.57-.24-.85-.59-.85-1a1.39,1.39,0,0,1,.85-1.17,4.79,4.79,0,0,1,2.2-.53,5.09,5.09,0,0,1,2.19.3c.57.24.86.55.86.95s-.29.73-.86,1.05a5.62,5.62,0,0,1-2.19.63A4.55,4.55,0,0,1,211.34,138.76Z" style="fill:#fff"></path></g><path d="M143.15,149v5.66c-5.94,2.46-8.91,3.78-14.86,6.62v-5c3-6.46,4.44-9.52,7.4-15.33-2.87.9-4.3,1.37-7.17,2.36,0-2.53,0-3.8,0-6.33,5.7-1.71,8.55-2.47,14.25-3.83v4.49c-3,5.43-4.44,8.3-7.39,14.38C138.49,150.73,140,150.14,143.15,149Z" style="fill:#263238"></path><path d="M155.76,146.38c-2.46.81-3.69,1.23-6.14,2.11-.44,1.58-.66,2.38-1.09,4-2.22.87-3.33,1.32-5.54,2.23,2.82-9.83,4.24-14.48,7.06-23.23,2.15-.45,3.22-.66,5.36-1,2.83,7.26,4.25,10.66,7.07,17-2.25.75-3.38,1.13-5.63,1.94C156.41,148.19,156.2,147.59,155.76,146.38Zm-1.5-4.27c-.63-1.8-.94-2.71-1.57-4.55-.63,2.16-.95,3.26-1.57,5.49C152.37,142.66,153,142.47,154.26,142.11Z" style="fill:#263238"></path><path d="M175.05,128.34a5,5,0,0,1,2.56,1.77,4.87,4.87,0,0,1,.9,3,6.2,6.2,0,0,1-.9,3.25,8.25,8.25,0,0,1-2.56,2.61,12.3,12.3,0,0,1-3.91,1.68l-2.33.6v4.2c-2.18.67-3.27,1-5.45,1.73V129.09c3.11-.47,4.67-.68,7.78-1.05A8.94,8.94,0,0,1,175.05,128.34Zm-2.59,7.17A2.18,2.18,0,0,0,173,134a1.53,1.53,0,0,0-.56-1.32,2.14,2.14,0,0,0-1.66-.24l-2,.34v4c.8-.18,1.19-.26,2-.42A3,3,0,0,0,172.46,135.51Z" style="fill:#263238"></path><path d="M192,127.09a5.55,5.55,0,0,1,2.56,1.56,3.58,3.58,0,0,1,.91,2.44,4.17,4.17,0,0,1-.91,2.58,7.36,7.36,0,0,1-2.56,2,14.29,14.29,0,0,1-3.9,1.26l-2.34.43v3.47c-2.18.5-3.27.77-5.45,1.33V127.13c3.12-.25,4.67-.34,7.79-.49A11,11,0,0,1,192,127.09Zm-2.59,5.73a1.54,1.54,0,0,0,.56-1.22,1.23,1.23,0,0,0-.56-1.1,2.6,2.6,0,0,0-1.66-.27l-2,.2v3.3l2-.27A3.14,3.14,0,0,0,189.39,132.82Z" style="fill:#263238"></path><path d="M208.91,127.05a6.67,6.67,0,0,1,2.57,1.36,2.52,2.52,0,0,1,.9,1.9,2.58,2.58,0,0,1-.9,1.92,7.15,7.15,0,0,1-2.57,1.46,17.37,17.37,0,0,1-3.9.85l-2.33.26v2.73c-2.18.35-3.27.54-5.46.94,0-4.83,0-7.25,0-12.08,3.12,0,4.68,0,7.79.07A14.68,14.68,0,0,1,208.91,127.05Zm-2.58,4.3a1,1,0,0,0,.55-.92,1,1,0,0,0-.55-.89,3.52,3.52,0,0,0-1.67-.29l-2,.06v2.6l2-.14A3.47,3.47,0,0,0,206.33,131.35Z" style="fill:#263238"></path><path d="M213.58,126.84c2.49.15,3.74.25,6.24.47-.42,1.95-.63,3-1,5-1.67,0-2.5.07-4.16.14C214.2,130.26,214,129.13,213.58,126.84Zm.92,8.76c-.57-.24-.85-.59-.85-1a1.39,1.39,0,0,1,.85-1.16,4.91,4.91,0,0,1,2.2-.54,5.24,5.24,0,0,1,2.19.31c.57.24.86.55.86.94s-.29.74-.86,1.06a5.62,5.62,0,0,1-2.19.63A4.55,4.55,0,0,1,214.5,135.6Z" style="fill:#263238"></path><polygon points="206.93 340.26 310.59 340.26 286.31 189.73 214.2 211.46 206.93 340.26" style="fill:#407BFF"></polygon><polygon points="206.93 340.26 310.59 340.26 286.31 189.73 214.2 211.46 206.93 340.26" style="fill:#fff;opacity:0.4"></polygon><polygon points="229.96 196.36 364.76 155.74 364.76 90.49 215.35 90.49 229.96 196.36" style="fill:#407BFF"></polygon><polygon points="229.96 196.36 364.76 155.74 364.76 90.49 215.35 90.49 229.96 196.36" style="fill:#fff;opacity:0.4"></polygon><polygon points="364.76 90.49 316.77 90.49 268.17 118.94 274.17 97.36 234.33 140.27 240.97 107.46 222.16 139.87 227.96 181.87 276.01 171.17 261.46 164.41 313.53 160.07 285.62 152.94 358.3 142.23 343.52 136.02 364.76 129.76 364.76 90.49" style="fill:#407BFF"></polygon><polygon points="364.76 90.49 316.77 90.49 268.17 118.94 274.17 97.36 234.33 140.27 240.97 107.46 222.16 139.87 227.96 181.87 276.01 171.17 261.46 164.41 313.53 160.07 285.62 152.94 358.3 142.23 343.52 136.02 364.76 129.76 364.76 90.49" style="fill:#fff;opacity:0.8"></polygon><path d="M287.93,178.89l49-14.78c-.11-14.2-1.52-33.67-7.36-49.34l-13.47,2.93-3.14,7-3.17,6h-4l-.59-1.1-7.8-7.74-11.85,2.59S295.69,142.16,287.93,178.89Z" style="fill:#263238"></path><path d="M287.93,178.89l49-14.78c-.11-14.2-1.52-33.67-7.36-49.34l-13.47,2.93-3.14,7-3.17,6h-4l-.59-1.1-7.8-7.74-11.85,2.59S295.69,142.16,287.93,178.89Z" style="fill:#fff;opacity:0.5"></path><polygon points="259.3 139.26 266.85 135.26 273.15 142.23 267.16 145.28 262.65 145.28 259.3 139.26" style="fill:#263238"></polygon><path d="M238.41,160.07s7.47,5.05,20,0,28-24,28-24h2S276.54,155.19,260,162.31c-14.32,6.15-23.06-.67-23.06-.67Z" style="fill:#407BFF"></path><path d="M285.62,124.36S274.89,126,261.46,136l4.31,5.32,3.16-.88,2.27,3.3s12.36-2.42,19.37-7.74Z" style="fill:#263238"></path><path d="M285.62,124.36S274.89,126,261.46,136l4.31,5.32,3.16-.88,2.27,3.3s12.36-2.42,19.37-7.74Z" style="fill:#fff;opacity:0.5"></path><polygon points="348.11 109.78 351.19 103.95 358.97 106.19 359.79 109.78 358.25 114.89 351.19 114.13 348.11 109.78" style="fill:#263238"></polygon><polygon points="351.57 75.86 342.61 68.5 336.32 74.17 338.39 81.11 346.33 81.93 349.63 85.57 353.35 85.04 351.57 75.86" style="fill:#263238"></polygon><path d="M355,110.71l-1.51.72-4-4.28a44.38,44.38,0,0,0-17.06,5.51l-1.54,13.72c16.08,0,28.08-11.56,28.08-11.56Z" style="fill:#263238"></path><path d="M355,110.71l-1.51.72-4-4.28a44.38,44.38,0,0,0-17.06,5.51l-1.54,13.72c16.08,0,28.08-11.56,28.08-11.56Z" style="fill:#fff;opacity:0.5"></path><path d="M359,103l-5.12-20.79s-4.88-.88-5.74,2.52l1.52,18.5,4.94,2Z" style="fill:#263238"></path><path d="M359,103l-5.12-20.79s-4.88-.88-5.74,2.52l1.52,18.5,4.94,2Z" style="fill:#fff;opacity:0.30000000000000004"></path><path d="M351.06,83.46,345.32,77A7,7,0,0,1,352.75,73l2.79,9.64Z" style="fill:#407BFF"></path><path d="M310.69,104.77c0,4.9,6.2,13.92,6.2,13.92l-7.06,11.92h-4s-6.67-5.38-5.79-7.6c1.44-3.62-1-11.65-1-11.65S310.69,101.59,310.69,104.77Z" style="fill:#263238"></path><path d="M310.69,104.77c0,4.9,6.2,13.92,6.2,13.92l-7.06,11.92h-4s-6.67-5.38-5.79-7.6c1.44-3.62-1-11.65-1-11.65S310.69,101.59,310.69,104.77Z" style="fill:#fff;opacity:0.2"></path><path d="M309.45,93.72c2.12,7.17,3.17,10.19.93,15-3.36,7.35-12.63,8.39-16.85,2-3.76-5.76-6.66-16.51-.77-21.8a10.2,10.2,0,0,1,16.69,4.79Z" style="fill:#71403e"></path><path d="M297.27,103.57a16.36,16.36,0,0,1-.7,4.39,2.65,2.65,0,0,0,2.17-.36Z" style="fill:#561616"></path><path d="M300.4,108.36a12.68,12.68,0,0,0,4.65-2.63,2.88,2.88,0,0,1,.35.85,3.46,3.46,0,0,1,.09,1.63c-.24,1.11-1.15,2.32-3.69,3.15l-.56.16a24.33,24.33,0,0,0-1.7-2.87S299.88,108.56,300.4,108.36Z" style="fill:#2e353a"></path><path d="M305.08,105.72a3.05,3.05,0,0,1,.35.86c-.54,1-2.12,1.84-4.51,2.62l-.52-.84C301.65,107.91,304,107,305.08,105.72Z" style="fill:#fff"></path><path d="M302.84,109.68a8.72,8.72,0,0,1,2.65-1.47c-.24,1.11-1.15,2.32-3.69,3.15A3.23,3.23,0,0,1,302.84,109.68Z" style="fill:#c15854"></path><path d="M322.76,113.46l6.47,7.41,4.34-.76L339,107S329.64,102.51,322.76,113.46Z" style="fill:#263238"></path><path d="M322.76,113.46l6.47,7.41,4.34-.76L339,107S329.64,102.51,322.76,113.46Z" style="fill:#fff;opacity:0.30000000000000004"></path><path d="M290.07,119.36l.91,9.8-3.54,2.62-13.27-5.1S277.4,116.81,290.07,119.36Z" style="fill:#263238"></path><path d="M290.07,119.36l.91,9.8-3.54,2.62-13.27-5.1S277.4,116.81,290.07,119.36Z" style="fill:#fff;opacity:0.30000000000000004"></path><path d="M348.7,104l5,5.41,1.95-.7L360,113s1.56-5.16-1.06-13.52l-4.81.59-1.1,2.79-4-.59Z" style="fill:#407BFF"></path><polygon points="296.72 118.08 306.04 126.04 306.47 129.43 309.12 129.43 308.39 125.21 315.14 113.47 319.64 116.94 311.3 131.45 305.56 132.02 295.01 122.75 296.72 118.08" style="fill:#263238"></polygon><polygon points="296.72 118.08 306.04 126.04 306.47 129.43 309.12 129.43 308.39 125.21 315.14 113.47 319.64 116.94 311.3 131.45 305.56 132.02 295.01 122.75 296.72 118.08" style="fill:#fff;opacity:0.30000000000000004"></polygon><polygon points="259.3 139.26 234.33 155.27 236.11 160.07 265.89 149 259.3 139.26" style="fill:#263238"></polygon><polygon points="259.3 139.26 234.33 155.27 236.11 160.07 265.89 149 259.3 139.26" style="fill:#fff;opacity:0.30000000000000004"></polygon><polygon points="248.88 143.76 252.28 143.76 255.81 152.75 254.23 155.57 235.31 163.48 233.36 162.8 230.49 155.73 231.33 153.62 248.88 143.76" style="fill:#263238"></polygon><polygon points="248.88 143.76 252.28 143.76 255.81 152.75 254.23 155.57 235.31 163.48 233.36 162.8 230.49 155.73 231.33 153.62 248.88 143.76" style="fill:#fff;opacity:0.2"></polygon><polygon points="317.28 137.79 320.26 135.26 324.95 135.26 327.85 137.34 322.56 142.23 317.28 137.79" style="fill:#407BFF"></polygon><path d="M309.37,93.5l-1.2.71-1.47,3.41s4.14,10.77,0,13.74c0,0-4.45-1-4.9,2.11,0,0-1.78,1.48-6.47-.68,4.65,4,12.11,2.38,15.05-4.05,2.24-4.83,1.19-7.85-.93-15A2,2,0,0,0,309.37,93.5Z" style="fill:#263238"></path><path d="M289.4,101.24s-5.57-15.8,15.39-17.95l-.28,2.45a14.1,14.1,0,0,1,4.2,6.52S302.58,98.3,289.4,101.24Z" style="fill:#263238"></path><path d="M289.4,101.24s-5.57-15.8,15.39-17.95l-.28,2.45a14.1,14.1,0,0,1,4.2,6.52S302.58,98.3,289.4,101.24Z" style="fill:#fff;opacity:0.5"></path><path d="M334.93,120.87a3.77,3.77,0,1,1-3.77-3.77A3.77,3.77,0,0,1,334.93,120.87Z" style="fill:#407BFF"></path><path d="M284.64,130.16a3.77,3.77,0,1,0,3.77-3.78A3.77,3.77,0,0,0,284.64,130.16Z" style="fill:#407BFF"></path><path d="M289,100.38s17.86-5.3,19.93-9.34l1.45,3.11s-5,9.64-13.43,8.88c0,0-1.23,3.67-6.54,2.4l-1.46-1.6Z" style="fill:#263238"></path><path d="M289,100.38s17.86-5.3,19.93-9.34l1.45,3.11s-5,9.64-13.43,8.88c0,0-1.23,3.67-6.54,2.4l-1.46-1.6Z" style="fill:#fff;opacity:0.2"></path><path d="M290.36,104.87c5.22-.5,10.47-3.36,15-5.83,1.17-.64.12-2.43-1.05-1.79-4.11,2.26-9.35,5.11-13.91,5.54-1.32.13-1.33,2.2,0,2.08Z" style="fill:#407BFF"></path><polygon points="308.71 95.61 311.37 83.29 312.82 84.55 311.37 97.19 308.71 95.61" style="fill:#263238"></polygon><polygon points="308.71 95.61 311.37 83.29 312.82 84.55 311.37 97.19 308.71 95.61" style="fill:#fff;opacity:0.30000000000000004"></polygon><path d="M312.27,97c.31,1.77-.46,3.38-1.7,3.6s-2.51-1-2.81-2.83.46-3.38,1.71-3.59S312,95.2,312.27,97Z" style="fill:#263238"></path><path d="M312.27,97c.31,1.77-.46,3.38-1.7,3.6s-2.51-1-2.81-2.83.46-3.38,1.71-3.59S312,95.2,312.27,97Z" style="fill:#fff;opacity:0.5"></path><path d="M312,96.68c.17,1-.26,1.89-.95,2s-1.39-.58-1.56-1.57.25-1.88.95-2S311.78,95.69,312,96.68Z" style="fill:#263238"></path><path d="M312,96.68c.17,1-.26,1.89-.95,2s-1.39-.58-1.56-1.57.25-1.88.95-2S311.78,95.69,312,96.68Z" style="fill:#fff;opacity:0.2"></path><path d="M238.08,164.65l-17.58,9h-2.42l-6-13.14,1.58-1.84L232,151.17a5.29,5.29,0,0,1,6.54,2.19,23.77,23.77,0,0,1,2.21,5A5.3,5.3,0,0,1,238.08,164.65Z" style="fill:#263238"></path><path d="M238.08,164.65l-17.58,9h-2.42l-6-13.14,1.58-1.84L232,151.17a5.29,5.29,0,0,1,6.54,2.19,23.77,23.77,0,0,1,2.21,5A5.3,5.3,0,0,1,238.08,164.65Z" style="fill:#fff;opacity:0.5"></path><path d="M271.43,146.5l-3.13-4.4L265,143.24l-4.82-5.9-2.41,1.92.63,14S264.93,153.3,271.43,146.5Z" style="fill:#407BFF"></path><path d="M217.07,166.12c1.66,3.62,2.11,7,1,7.48s-3.35-2-5-5.66-2.11-7-1-7.48S215.42,162.49,217.07,166.12Z" style="fill:#263238"></path><path d="M216.27,166.48c1,2.17,1.25,4.16.59,4.46s-2-1.2-3-3.37-1.25-4.16-.59-4.46S215.28,164.32,216.27,166.48Z" style="fill:#407BFF"></path><polygon points="321.56 168.75 320.32 150.97 315.32 150.97 311.91 149 309.87 148.31 308.19 151.71 303.15 151.71 301.75 174.72 321.56 168.75" style="fill:#263238"></polygon><polygon points="321.56 168.75 320.32 150.97 315.32 150.97 311.91 149 309.87 148.31 308.19 151.71 303.15 151.71 301.75 174.72 321.56 168.75" style="fill:#fff;opacity:0.2"></polygon><polygon points="321.56 168.75 320.32 150.97 315.32 150.97 311.91 149 309.87 148.31 308.19 151.71 303.15 151.71 301.75 174.72 321.56 168.75" style="fill:#fff;opacity:0.2"></polygon><path d="M320.32,151h-5l-3.41-2-2-.69-1.69,3.4h-5l-.73,12.09,3.78,2.63s5.07-4.43,11.66,0l3.39-2.07Z" style="fill:#fff;opacity:0.30000000000000004"></path><path d="M335.89,143.87l-3.2,5.13-18,.67-4.08-10.41h-1.38l-1.07,10.41-17.31,1.79v2h17.52l1.61-2.61,1.3-.13,2.9,2.49,19.2-1.5,2.79-4.65C336.1,146,336,144.94,335.89,143.87Z" style="fill:#263238"></path><path d="M335.89,143.87l-3.2,5.13-18,.67-4.08-10.41h-1.38l-1.07,10.41-17.31,1.79v2h17.52l1.61-2.61,1.3-.13,2.9,2.49,19.2-1.5,2.79-4.65C336.1,146,336,144.94,335.89,143.87Z" style="fill:#fff;opacity:0.2"></path><polygon points="295.85 183.68 313.84 295.22 358.73 295.22 358.73 164.73 295.85 183.68" style="fill:#407BFF"></polygon><polygon points="295.85 183.68 313.84 295.22 358.73 295.22 358.73 164.73 295.85 183.68" style="fill:#fff;opacity:0.2"></polygon><circle cx="305.86" cy="224.42" r="1.64" style="fill:#407BFF"></circle><path d="M305.86,211.09a1.24,1.24,0,1,0-1.23-1.24A1.24,1.24,0,0,0,305.86,211.09Z" style="fill:#407BFF"></path><path d="M305.86,196.12a.83.83,0,0,0,.84-.83.84.84,0,1,0-1.67,0A.83.83,0,0,0,305.86,196.12Z" style="fill:#407BFF"></path><circle cx="318.63" cy="289.15" r="3.64" style="fill:#407BFF"></circle><path d="M318.63,277.82a3.24,3.24,0,1,0-3.24-3.24A3.23,3.23,0,0,0,318.63,277.82Z" style="fill:#407BFF"></path><path d="M318.63,262.85a2.84,2.84,0,1,0-2.84-2.84A2.84,2.84,0,0,0,318.63,262.85Z" style="fill:#407BFF"></path><path d="M318.63,247.89a2.44,2.44,0,1,0-2.44-2.44A2.43,2.43,0,0,0,318.63,247.89Z" style="fill:#407BFF"></path><path d="M318.63,232.92a2,2,0,1,0-2-2A2,2,0,0,0,318.63,232.92Z" style="fill:#407BFF"></path><circle cx="318.63" cy="216.32" r="1.64" style="fill:#407BFF"></circle><path d="M318.63,203a1.24,1.24,0,1,0-1.24-1.24A1.23,1.23,0,0,0,318.63,203Z" style="fill:#407BFF"></path><path d="M318.63,188a.83.83,0,0,0,.83-.83.84.84,0,0,0-.83-.84.85.85,0,0,0-.84.84A.84.84,0,0,0,318.63,188Z" style="fill:#407BFF"></path><circle cx="330.16" cy="282.68" r="3.24" style="fill:#407BFF"></circle><path d="M330.16,271a2.84,2.84,0,1,0-2.84-2.84A2.84,2.84,0,0,0,330.16,271Z" style="fill:#407BFF"></path><path d="M330.16,256a2.44,2.44,0,1,0-2.44-2.43A2.43,2.43,0,0,0,330.16,256Z" style="fill:#407BFF"></path><circle cx="330.16" cy="238.98" r="2.04" style="fill:#407BFF"></circle><circle cx="330.16" cy="224.42" r="1.64" style="fill:#407BFF"></circle><path d="M330.16,211.09a1.24,1.24,0,1,0-1.24-1.24A1.24,1.24,0,0,0,330.16,211.09Z" style="fill:#407BFF"></path><path d="M330.16,196.12a.83.83,0,0,0,.83-.83.84.84,0,0,0-.83-.84.85.85,0,0,0-.84.84A.84.84,0,0,0,330.16,196.12Z" style="fill:#407BFF"></path><circle cx="342.92" cy="289.15" r="3.64" style="fill:#407BFF"></circle><path d="M342.92,277.82a3.24,3.24,0,1,0-3.24-3.24A3.24,3.24,0,0,0,342.92,277.82Z" style="fill:#407BFF"></path><path d="M342.92,262.85a2.84,2.84,0,1,0-2.84-2.84A2.84,2.84,0,0,0,342.92,262.85Z" style="fill:#407BFF"></path><path d="M342.92,247.89a2.44,2.44,0,1,0-2.44-2.44A2.44,2.44,0,0,0,342.92,247.89Z" style="fill:#407BFF"></path><path d="M342.92,232.92a2,2,0,1,0-2-2A2,2,0,0,0,342.92,232.92Z" style="fill:#407BFF"></path><circle cx="342.92" cy="216.32" r="1.64" style="fill:#407BFF"></circle><path d="M342.92,203a1.24,1.24,0,1,0-1.23-1.24A1.24,1.24,0,0,0,342.92,203Z" style="fill:#407BFF"></path><path d="M342.92,188a.84.84,0,0,0,.84-.83.85.85,0,0,0-.84-.84.84.84,0,0,0-.83.84A.83.83,0,0,0,342.92,188Z" style="fill:#407BFF"></path><circle cx="354.45" cy="282.68" r="3.24" style="fill:#407BFF"></circle><path d="M354.45,271a2.84,2.84,0,1,0-2.84-2.84A2.84,2.84,0,0,0,354.45,271Z" style="fill:#407BFF"></path><path d="M354.45,256a2.44,2.44,0,1,0-2.44-2.43A2.44,2.44,0,0,0,354.45,256Z" style="fill:#407BFF"></path><circle cx="354.45" cy="238.98" r="2.04" style="fill:#407BFF"></circle><circle cx="354.45" cy="224.42" r="1.64" style="fill:#407BFF"></circle><path d="M354.45,211.09a1.24,1.24,0,1,0-1.24-1.24A1.24,1.24,0,0,0,354.45,211.09Z" style="fill:#407BFF"></path><path d="M354.45,196.12a.83.83,0,0,0,.83-.83.84.84,0,0,0-.83-.84.85.85,0,0,0-.84.84A.84.84,0,0,0,354.45,196.12Z" style="fill:#407BFF"></path><path d="M357.47,295.22a3.64,3.64,0,0,0-6,0Z" style="fill:#407BFF"></path><path d="M333.18,295.22a3.64,3.64,0,0,0-6,0Z" style="fill:#407BFF"></path><path d="M307.42,255.41a2.42,2.42,0,0,0-.67-4.13Z" style="fill:#407BFF"></path><path d="M305.07,240.86a2.06,2.06,0,0,0,.79.16,2,2,0,1,0,0-4.07,2,2,0,0,0-1.34.51Z" style="fill:#407BFF"></path><path d="M319.2,188.61s9.47,7.56,12-5.44c0,0,7.68,14.89,19,6.37,0,0,4.58,10.17,17.4,6.55,0,0-1.55,10.87,4.37,12.52,0,0-6.05,2.06-1.85,13.8,0,0-13.17-12.22-20.56-4,0,0-11-12.68-25.8-5.87,0,0-2.14-13.43-11.51-12.31C312.23,200.24,321.26,199.57,319.2,188.61Z" style="fill:#407BFF"></path><path d="M319.2,188.61s9.47,7.56,12-5.44c0,0,7.68,14.89,19,6.37,0,0,4.58,10.17,17.4,6.55,0,0-1.55,10.87,4.37,12.52,0,0-6.05,2.06-1.85,13.8,0,0-13.17-12.22-20.56-4,0,0-11-12.68-25.8-5.87,0,0-2.14-13.43-11.51-12.31C312.23,200.24,321.26,199.57,319.2,188.61Z" style="fill:#fff;opacity:0.8"></path><path d="M329,195.8a5.33,5.33,0,0,1,1.75,1.79,4.58,4.58,0,0,1,.61,2.33,3.41,3.41,0,0,1-.61,2.09,3,3,0,0,1-1.75,1.11,6.16,6.16,0,0,1-2.67,0l-1.59-.31v2.71l-3.72-.72v-11l5.31,1A7.74,7.74,0,0,1,329,195.8Zm-1.77,4.27a1,1,0,0,0,.38-.88,1.49,1.49,0,0,0-.38-1,2,2,0,0,0-1.13-.56l-1.36-.26v2.59l1.36.26A1.44,1.44,0,0,0,327.18,200.07Z" style="fill:#407BFF"></path><path d="M335.27,207.07a7.32,7.32,0,0,1-2.22-2.49,6.37,6.37,0,0,1-.81-3.12,4.79,4.79,0,0,1,.81-2.82,4.18,4.18,0,0,1,2.22-1.62,6.31,6.31,0,0,1,3.2-.12,8.09,8.09,0,0,1,3.2,1.36,7.54,7.54,0,0,1,2.22,2.49,6.48,6.48,0,0,1,.8,3.13,4.85,4.85,0,0,1-.8,2.81,4.26,4.26,0,0,1-2.22,1.62,6.32,6.32,0,0,1-3.2.12A8,8,0,0,1,335.27,207.07Zm4.45-1.74a1.84,1.84,0,0,0,.89-.79,2.7,2.7,0,0,0,.33-1.39,3.5,3.5,0,0,0-.33-1.53,3.31,3.31,0,0,0-.89-1.13,2.81,2.81,0,0,0-1.25-.58,2.21,2.21,0,0,0-1.26.09,1.89,1.89,0,0,0-.89.79,2.71,2.71,0,0,0-.33,1.4,3.49,3.49,0,0,0,.33,1.52,3.31,3.31,0,0,0,.89,1.13,2.85,2.85,0,0,0,1.26.58A2.17,2.17,0,0,0,339.72,205.33Z" style="fill:#407BFF"></path><path d="M363.6,202l-3.53,10.34-4-.77-1.79-6.24-1.87,5.53-4-.78-3.53-11.72,3.83.75,1.92,6.64,2-5.87,3.42.66,1.92,6.73,2-6Z" style="fill:#407BFF"></path><path d="M364.26,202.16l4.26.83-.71,6.67-2.84-.55Zm.63,10.76a2.18,2.18,0,0,1-.58-1.45,1.43,1.43,0,0,1,.58-1.22,1.9,1.9,0,0,1,1.5-.23,2.65,2.65,0,0,1,1.5.82,2.05,2.05,0,0,1,.58,1.44,1.45,1.45,0,0,1-.58,1.23,1.82,1.82,0,0,1-1.5.26A2.58,2.58,0,0,1,364.89,212.92Z" style="fill:#407BFF"></path><path d="M328.32,194.42a5.25,5.25,0,0,1,1.75,1.79,4.58,4.58,0,0,1,.61,2.33,3.38,3.38,0,0,1-.61,2.08,3,3,0,0,1-1.75,1.11,6.15,6.15,0,0,1-2.67,0l-1.59-.31v2.71l-3.72-.72v-11l5.31,1A7.74,7.74,0,0,1,328.32,194.42Zm-1.77,4.27a1,1,0,0,0,.38-.88,1.49,1.49,0,0,0-.38-1,2,2,0,0,0-1.13-.56l-1.36-.26v2.58l1.36.27A1.53,1.53,0,0,0,326.55,198.69Z" style="fill:#263238"></path><path d="M334.64,205.69a7.46,7.46,0,0,1-2.23-2.49,6.48,6.48,0,0,1-.8-3.13,4.85,4.85,0,0,1,.8-2.81,4.21,4.21,0,0,1,2.23-1.63,6.31,6.31,0,0,1,3.2-.12,8.14,8.14,0,0,1,3.19,1.37,7.37,7.37,0,0,1,2.23,2.49,6.47,6.47,0,0,1,.8,3.12,4.88,4.88,0,0,1-.8,2.82,4.24,4.24,0,0,1-2.23,1.62,6.28,6.28,0,0,1-3.19.12A8,8,0,0,1,334.64,205.69Zm4.45-1.75a1.82,1.82,0,0,0,.89-.78,2.74,2.74,0,0,0,.33-1.4,3.49,3.49,0,0,0-.33-1.52,3.22,3.22,0,0,0-.89-1.13,2.83,2.83,0,0,0-1.25-.59,2.2,2.2,0,0,0-1.26.1,1.84,1.84,0,0,0-.89.79,2.67,2.67,0,0,0-.33,1.39,3.43,3.43,0,0,0,.33,1.52,3.26,3.26,0,0,0,.89,1.14,2.85,2.85,0,0,0,1.26.58A2.09,2.09,0,0,0,339.09,203.94Z" style="fill:#263238"></path><path d="M363,200.65,359.44,211l-4-.78L353.67,204l-1.87,5.53-4-.77L344.28,197l3.83.74,1.92,6.65,2-5.88,3.42.67,1.92,6.72,2-5.95Z" style="fill:#263238"></path><path d="M363.63,200.78l4.26.83-.71,6.67-2.84-.55Zm.63,10.76a2.19,2.19,0,0,1-.58-1.45,1.42,1.42,0,0,1,.58-1.22,1.86,1.86,0,0,1,1.5-.24,2.65,2.65,0,0,1,1.5.82,2.09,2.09,0,0,1,.58,1.45,1.43,1.43,0,0,1-.58,1.22,1.79,1.79,0,0,1-1.5.26A2.57,2.57,0,0,1,364.26,211.54Z" style="fill:#263238"></path><polygon points="205.62 202.98 145.18 221.2 145.18 289.57 200.73 289.57 205.62 202.98" style="fill:#407BFF"></polygon><polygon points="205.62 202.98 145.18 221.2 145.18 289.57 200.73 289.57 205.62 202.98" style="opacity:0.2"></polygon><polygon points="185.06 248.74 205.09 212.33 205.62 202.98 203.76 203.54 185.25 237.63 182.82 228.92 173.15 247.63 174.09 230.34 161.5 253.41 154.98 228.4 148.6 254.35 145.18 249.42 145.18 289.57 186.88 289.57 198.34 283.52 186.19 276.04 198.86 266.49 182.27 263.7 196.97 247.8 175.15 253.97 182.45 239.87 185.06 248.74" style="fill:#fff;opacity:0.5"></polygon><polygon points="186 254.41 168.92 260.15 169.87 244.56 160.94 260.64 154.84 240.2 148.69 259.9 145.18 255.8 145.18 289.57 179.85 289.57 192.13 283.08 180.64 276 189.01 268.5 174.36 265.85 186 254.41" style="fill:#fff;opacity:0.5"></polygon><path d="M134.55,271.62l-1.32.7-2.1,2.63c-1.18-.34-1.77-.52-2.95-.91l9.44-10.7c.8.41,1.2.61,2,1l-3.09,3.85c2.18-1.18,3.2-1.77,5.12-2.95.91.38,1.37.57,2.3.91-2.17,1.44-3.35,2.17-5.89,3.63a30.09,30.09,0,0,0-.52,6.73c-1.41-.28-2.11-.43-3.51-.78A31.44,31.44,0,0,1,134.55,271.62Z" style="fill:#263238"></path><path d="M140.82,270.93c1.3.36,2,.53,3.26.82l-1.32,2.45c-1.42-.27-2.13-.42-3.54-.76Z" style="fill:#263238"></path><path d="M152.14,274.09a2.18,2.18,0,0,1,0,1.41,2.86,2.86,0,0,1-1.48,1.83,5.6,5.6,0,0,1-3.06.52c-2-.14-3.07-.25-5.11-.52l5.07-10c1.38.41,2.07.59,3.47.92a2.64,2.64,0,0,1,1.77,1.08,2.25,2.25,0,0,1,.19,1.87,3.15,3.15,0,0,1-.6,1.13,2.71,2.71,0,0,1-1.06.74A2,2,0,0,1,152.14,274.09Zm-3.43-3.85-.62,1.44,1.18.21a.88.88,0,0,0,1.09-.58c.17-.47,0-.75-.53-.85Zm.71,4.68c.18-.49,0-.77-.63-.85s-1-.12-1.64-.22l-.66,1.53c.69.09,1,.13,1.72.2A1,1,0,0,0,149.42,274.92Z" style="fill:#263238"></path><path d="M154.72,277.64a2.88,2.88,0,0,1-1.4-1.67,4.41,4.41,0,0,1,0-2.47,6.55,6.55,0,0,1,1.17-2.38,5,5,0,0,1,1.76-1.49,3.59,3.59,0,0,1,2-.35,4,4,0,0,1,1.91.72,4.9,4.9,0,0,1,1.4,1.53,4.47,4.47,0,0,1,.61,2.09,3.78,3.78,0,0,1-.54,2.14,4.52,4.52,0,0,1-1.77,1.63,6.27,6.27,0,0,1-2.66.74A4.68,4.68,0,0,1,154.72,277.64Zm3.78-2.1a2,2,0,0,0,.72-.75,2.24,2.24,0,0,0,.31-1.09,2.32,2.32,0,0,0-.16-1.08,1.74,1.74,0,0,0-.55-.74,1.42,1.42,0,0,0-.8-.29,1.47,1.47,0,0,0-.86.21,2.06,2.06,0,0,0-.72.72,2.88,2.88,0,0,0-.43,1.14,2.3,2.3,0,0,0,0,1.15,1.4,1.4,0,0,0,.55.76,1.53,1.53,0,0,0,.92.25A2,2,0,0,0,158.5,275.54Z" style="fill:#263238"></path><path d="M165.5,276.74a3.56,3.56,0,0,1-1.9-1.16,3.33,3.33,0,0,1-.74-2,4,4,0,0,1,.39-2.07,3.39,3.39,0,0,1,1.26-1.41,3.78,3.78,0,0,1,1.87-.52,5.82,5.82,0,0,1,2.1.34,6.87,6.87,0,0,1,1.89,1,4.33,4.33,0,0,1,1.3,1.54,2.35,2.35,0,0,1,.17,1.75,3.14,3.14,0,0,1-1.25,1.56,6.34,6.34,0,0,1-2.42,1A6,6,0,0,1,165.5,276.74Zm3.09-2.22a1.28,1.28,0,0,0,.48-.69,1.48,1.48,0,0,0,0-.9,2.13,2.13,0,0,0-.52-.84,2.31,2.31,0,0,0-.78-.5,1.77,1.77,0,0,0-.88-.13,1.34,1.34,0,0,0-.78.28,1.36,1.36,0,0,0-.48.66,1.83,1.83,0,0,0-.07,1,1.89,1.89,0,0,0,.41.92,1.68,1.68,0,0,0,.78.53,2.18,2.18,0,0,0,1,.07A1.94,1.94,0,0,0,168.59,274.52Z" style="fill:#263238"></path><path d="M181.84,272.61l-2.2-1.92a12.79,12.79,0,0,1-.06,2.21c-.49.18-.74.26-1.24.43a24.33,24.33,0,0,1-3.13-1.26l1.63,2.32c-1.06.33-1.59.49-2.66.79l-3.12-5.79c.75-.09,1.12-.14,1.87-.25a22.5,22.5,0,0,0,4.46,2.17,11.37,11.37,0,0,0-.14-3c.74-.17,1.11-.26,1.85-.45,2.12,1.46,3.19,2.2,5.32,3.65C183.4,272,182.88,272.2,181.84,272.61Z" style="fill:#263238"></path><path d="M179.87,267.69c1-.28,1.53-.43,2.55-.76,1.34.72,2,1.09,3.29,1.87-.78.34-1.17.5-2,.82C182.17,268.88,181.39,268.49,179.87,267.69Zm5.76,3.1a1.86,1.86,0,0,1-1.1-.22c-.27-.16-.35-.36-.25-.58a1.42,1.42,0,0,1,.78-.6,4.11,4.11,0,0,1,1.33-.32,2.39,2.39,0,0,1,1.15.13c.29.13.4.31.31.54s-.36.47-.81.69A3.59,3.59,0,0,1,185.63,270.79Z" style="fill:#263238"></path><path d="M133.69,270.76l-1.32.7-2.1,2.62c-1.19-.33-1.78-.52-3-.9l9.43-10.71c.8.42,1.21.61,2,1l-3.09,3.86c2.17-1.18,3.2-1.78,5.12-2.95.91.38,1.37.56,2.3.91-2.17,1.44-3.35,2.17-5.89,3.62a30.18,30.18,0,0,0-.52,6.74c-1.41-.28-2.11-.44-3.51-.78A31.44,31.44,0,0,1,133.69,270.76Z" style="fill:#407BFF"></path><path d="M140,270.07c1.3.36,1.95.53,3.26.82l-1.32,2.45c-1.42-.27-2.13-.42-3.54-.76Z" style="fill:#407BFF"></path><path d="M151.28,273.22a2.29,2.29,0,0,1,0,1.42,2.88,2.88,0,0,1-1.49,1.83,5.76,5.76,0,0,1-3,.52c-2.05-.15-3.07-.25-5.11-.53l5.07-10c1.38.41,2.07.59,3.47.91a2.68,2.68,0,0,1,1.77,1.09,2.21,2.21,0,0,1,.18,1.87,2.93,2.93,0,0,1-.6,1.13,2.74,2.74,0,0,1-1.05.74A2,2,0,0,1,151.28,273.22Zm-3.43-3.85-.62,1.45c.47.09.7.13,1.18.2a.86.86,0,0,0,1.08-.57c.18-.47,0-.75-.52-.85Zm.71,4.69c.18-.5,0-.77-.63-.85s-1-.12-1.64-.22c-.27.61-.4.92-.66,1.53.68.09,1,.12,1.72.19A1,1,0,0,0,148.56,274.06Z" style="fill:#407BFF"></path><path d="M153.85,276.78a2.92,2.92,0,0,1-1.39-1.68,4.37,4.37,0,0,1,0-2.46,6.61,6.61,0,0,1,1.16-2.38,5,5,0,0,1,1.77-1.49,3.59,3.59,0,0,1,2-.35,3.91,3.91,0,0,1,1.91.72,4.65,4.65,0,0,1,1.39,1.53,4.32,4.32,0,0,1,.61,2.09,3.73,3.73,0,0,1-.53,2.14,4.52,4.52,0,0,1-1.77,1.63,6.27,6.27,0,0,1-2.66.74A4.73,4.73,0,0,1,153.85,276.78Zm3.79-2.11a2,2,0,0,0,.72-.74,2.24,2.24,0,0,0,.31-1.09,2.46,2.46,0,0,0-.16-1.08A1.82,1.82,0,0,0,158,271a1.35,1.35,0,0,0-.8-.29,1.5,1.5,0,0,0-.87.21,2.24,2.24,0,0,0-.72.72,3.17,3.17,0,0,0-.43,1.13,2.45,2.45,0,0,0,.05,1.16,1.42,1.42,0,0,0,.54.76,1.66,1.66,0,0,0,.93.25A2,2,0,0,0,157.64,274.67Z" style="fill:#407BFF"></path><path d="M164.64,275.87a3.51,3.51,0,0,1-1.9-1.15,3.41,3.41,0,0,1-.75-2,4,4,0,0,1,.4-2.07,3.33,3.33,0,0,1,1.26-1.41,3.68,3.68,0,0,1,1.87-.52,5.82,5.82,0,0,1,2.1.34,6.61,6.61,0,0,1,1.89,1,4.43,4.43,0,0,1,1.3,1.54,2.3,2.3,0,0,1,.16,1.75,3.05,3.05,0,0,1-1.24,1.55,6.19,6.19,0,0,1-2.42,1A6,6,0,0,1,164.64,275.87Zm3.09-2.21a1.32,1.32,0,0,0,.48-.69,1.48,1.48,0,0,0-.05-.9,2.11,2.11,0,0,0-.51-.84,2.2,2.2,0,0,0-.78-.51,2.05,2.05,0,0,0-.88-.13,1.56,1.56,0,0,0-.79.28,1.58,1.58,0,0,0-.48.67,1.93,1.93,0,0,0-.06,1,1.81,1.81,0,0,0,.41.92,1.76,1.76,0,0,0,.78.53,2.18,2.18,0,0,0,1,.07A2,2,0,0,0,167.73,273.66Z" style="fill:#407BFF"></path><path d="M181,271.75l-2.2-1.92a13.9,13.9,0,0,1-.06,2.21l-1.25.43a24.81,24.81,0,0,1-3.12-1.27l1.63,2.33c-1.06.33-1.6.49-2.67.79-1.24-2.32-1.87-3.48-3.11-5.79.75-.09,1.12-.14,1.87-.25a23.06,23.06,0,0,0,4.46,2.17,11.35,11.35,0,0,0-.15-3c.75-.17,1.12-.26,1.85-.45l5.33,3.65C182.53,271.13,182,271.34,181,271.75Z" style="fill:#407BFF"></path><path d="M179,266.83c1-.28,1.54-.44,2.56-.76,1.34.71,2,1.09,3.28,1.86-.77.34-1.17.51-2,.82C181.31,268,180.53,267.63,179,266.83Zm5.77,3.1a1.94,1.94,0,0,1-1.1-.22c-.27-.17-.35-.36-.25-.59a1.38,1.38,0,0,1,.78-.59,4.12,4.12,0,0,1,1.33-.33,2.51,2.51,0,0,1,1.15.14c.29.13.39.31.31.54a1.55,1.55,0,0,1-.82.69A3.5,3.5,0,0,1,184.77,269.93Z" style="fill:#407BFF"></path></g><g id="freepik--Sofa--inject-61"><path d="M223.21,277.34h85.86a18.15,18.15,0,0,1,18.15,18.15V405.34a0,0,0,0,1,0,0H205.06a0,0,0,0,1,0,0V295.49A18.15,18.15,0,0,1,223.21,277.34Z" style="fill:#407BFF"></path><path d="M223.21,277.34h85.86a18.15,18.15,0,0,1,18.15,18.15V405.34a0,0,0,0,1,0,0H205.06a0,0,0,0,1,0,0V295.49A18.15,18.15,0,0,1,223.21,277.34Z" style="opacity:0.4"></path><path d="M157.39,313v10.67a9,9,0,0,0,9,9h0v72.66h38.67V317.69A13.67,13.67,0,0,0,191.38,304h-25A9,9,0,0,0,157.39,313Z" style="fill:#407BFF"></path><path d="M157.39,313v10.67a9,9,0,0,0,9,9h0v72.66h38.67V317.69A13.67,13.67,0,0,0,191.38,304h-25A9,9,0,0,0,157.39,313Z" style="opacity:0.30000000000000004"></path><path d="M148.56,313v10.67a9,9,0,0,0,9,9h0v72.66h28.67V317.69A13.68,13.68,0,0,0,172.55,304h-15A9,9,0,0,0,148.56,313Z" style="fill:#407BFF"></path><rect x="194.34" y="380.34" width="103.39" height="25" style="fill:#407BFF"></rect><rect x="194.34" y="380.34" width="103.39" height="25" style="fill:#407BFF"></rect><rect x="194.34" y="380.34" width="103.39" height="25" style="opacity:0.1"></rect><path d="M295.58,382.51a18.34,18.34,0,1,0,0-36.67H195.32a18.34,18.34,0,1,0,0,36.67Z" style="fill:#407BFF"></path><path d="M295.58,382.51a18.34,18.34,0,1,0,0-36.67H195.32a18.34,18.34,0,1,0,0,36.67Z" style="fill:#fff;opacity:0.1"></path><path d="M340.39,304h-29a13.67,13.67,0,0,0-13.68,13.68v87.65h42.66V332.68h0a9,9,0,0,0,9-9V313A9,9,0,0,0,340.39,304Z" style="fill:#407BFF"></path><path d="M340.39,304h-29a13.67,13.67,0,0,0-13.68,13.68v87.65h42.66V332.68h0a9,9,0,0,0,9-9V313A9,9,0,0,0,340.39,304Z" style="opacity:0.30000000000000004"></path><ellipse cx="295.95" cy="364.17" rx="17.97" ry="18.31" style="fill:#407BFF"></ellipse><ellipse cx="295.95" cy="364.17" rx="17.97" ry="18.31" style="opacity:0.30000000000000004"></ellipse><path d="M321.56,304h-15a13.68,13.68,0,0,0-13.68,13.68v87.65h28.67V332.68h0a9,9,0,0,0,9-9V313A9,9,0,0,0,321.56,304Z" style="fill:#407BFF"></path></g><g id="freepik--Character--inject-61"><polygon points="214.26 334.81 199.93 340.64 201.54 346.7 216.85 343.55 214.26 334.81" style="fill:#71403e"></polygon><path d="M263.21,314.12s-68.61-23.77-74.27-1.93,46.34,36.9,73.58,36S263.21,314.12,263.21,314.12Z" style="fill:#263238"></path><path d="M263.21,314.12s-68.61-23.77-74.27-1.93,46.34,36.9,73.58,36S263.21,314.12,263.21,314.12Z" style="opacity:0.30000000000000004"></path><path d="M302,249s15.43-3.14,14.1-11.5-6.75-31.41-6.75-31.41L298.83,197l-4.95,4.64,2.19,5.64,4.43,2.2,4.2,1.12.83,24.67-6.7,3.26Z" style="fill:#71403e"></path><path d="M280.52,249.25c.19,3.93,3.58,6.81,22.84,1.15l-2.19-15.33S280.12,241.24,280.52,249.25Z" style="fill:#407BFF"></path><path d="M297.5,252c-6.54-1.06-10.09-7.66-10.09-7.66l-2.88,1.44v6.37l.63,1.34C287.71,253.78,291.62,253.41,297.5,252Z" style="opacity:0.1"></path><path d="M212.2,316.33l33.3,21.22-5.32,8.72s3.22,1.07,7.68-9.58l-20.61-13.62s6.45-.65,6.29-1.66c-.28-1.64-14.43-4.8-20.9-6.16A.59.59,0,0,0,212.2,316.33Z" style="opacity:0.7000000000000001"></path><path d="M246.71,336.62l-5.77,9.79a109.61,109.61,0,0,0,21.58,1.76,19.51,19.51,0,0,0,7-1.31l2-3.88-4.37-9.21Z" style="opacity:0.7000000000000001"></path><path d="M244.12,249.09s8.64,31.11-.24,58.91c0,0,6,11.49,48.13,13.85,0,0,6.91-38-4.74-80.79C287.27,241.06,269.19,240.5,244.12,249.09Z" style="fill:#407BFF"></path><polygon points="273.9 259.31 281.15 258.22 283.51 260.09 278.41 264.81 272.46 261.22 273.9 259.31" style="opacity:0.2"></polygon><path d="M272.07,242.26c-2.22-3.47-1.76-9.37-1.18-13.61l-11,8.7c1,3.14,1.44,6.06-.35,7.3-.79.19-1.6.38-2.41.59l.31,1.46a5.61,5.61,0,0,0-.1,2l2.52,3.24.51.25.7.78,1.15.14.4.2.12-.14,2.91.36,5-3.93,2.71-6.55.43-1.07Z" style="fill:#71403e"></path><path d="M270.71,230.09c.05-.49.12-1,.18-1.44l-11,8.7a18,18,0,0,1,.81,3.75C267.34,241.16,269.86,233.79,270.71,230.09Z" style="opacity:0.1"></path><path d="M264,254.65c6.18-.21,10.55-8,12.72-13-1.29.14-2.69.32-4.18.53-1.42,3.84-4.21,9.43-8.54,10s-5.5-3.89-5.87-7.2l-2.23.57C256.39,249.38,258.09,254.85,264,254.65Z" style="fill:#407BFF"></path><path d="M264,254.65c6.18-.21,10.55-8,12.72-13-1.29.14-2.69.32-4.18.53-1.42,3.84-4.21,9.43-8.54,10s-5.5-3.89-5.87-7.2l-2.23.57C256.39,249.38,258.09,254.85,264,254.65Z" style="fill:#fff;opacity:0.5"></path><path d="M247.89,279.21c3.9-13,.09-25.64.09-25.64h-2.82A132.82,132.82,0,0,1,247.89,279.21Z" style="opacity:0.1"></path><path d="M235.19,266.68s-3.91,13.29-2.56,19.47,17.77,16.64,17.77,16.64l14-2.16,2.68-5.39-8.83-1.13L251.32,297l-8-11.87L245,272.93Z" style="fill:#71403e"></path><path d="M246.53,249.81c-2.54-2.13-7.63-.05-15.05,20.34l14.29,7.34S252,254.39,246.53,249.81Z" style="fill:#407BFF"></path><path d="M257.66,282.58s-.9-9.29,8.26-12.23l3.43,17.5-9.38,6Z" style="fill:#407BFF"></path><path d="M257.66,282.58s-.9-9.29,8.26-12.23l3.43,17.5-9.38,6Z" style="fill:#407BFF"></path><path d="M257.66,282.58s-.9-9.29,8.26-12.23l3.43,17.5-9.38,6Z" style="fill:#fff;opacity:0.5"></path><path d="M275,277.35s-9.66-2.89-17.77,3c0,0-9.13-6.43-18.41-.08l-.3,1.65s9.56-6.18,19.18.61c0,0,5.28-7.32,18.23-3Z" style="fill:#407BFF"></path><path d="M275,277.35s-9.66-2.89-17.77,3c0,0-9.13-6.43-18.41-.08l-.3,1.65s9.56-6.18,19.18.61c0,0,5.28-7.32,18.23-3Z" style="fill:#fff;opacity:0.9"></path><path d="M238.48,282s9.56-6.18,19.18.61c0,0,5.28-7.32,18.23-3l-1.95,15.14-12.86,3.44-13.76-1.78Z" style="fill:#407BFF"></path><path d="M238.48,282s9.56-6.18,19.18.61c0,0,5.28-7.32,18.23-3l-1.95,15.14-12.86,3.44-13.76-1.78Z" style="opacity:0.30000000000000004"></path><path d="M257.66,282.58s5.28-7.32,18.23-3l-1.95,15.14-12.86,3.44Z" style="fill:#407BFF"></path><path d="M257.66,282.58s5.28-7.32,18.23-3l-1.95,15.14-12.86,3.44Z" style="fill:#263238"></path><path d="M258.23,294.11,251.32,297l-2.94,4.47c1.24.85,2,1.34,2,1.34l14-2.16,2.68-5.39Z" style="fill:#71403e"></path><polygon points="246.12 338.12 252.6 343.56 249.63 348.18 239.76 346.64 246.12 338.12" style="fill:#71403e"></polygon><polygon points="238.03 346.8 244.8 336.13 247.85 338.31 242 347.52 238.03 346.8" style="fill:#407BFF"></polygon><path d="M287.33,336.85c3.69-6.25,10.81-25.08-6.31-28.36s-73.37,28.36-73.37,28.36l2.62,8.24,53.26-8.79s-14.81,13.4,1.39,11.73C277.76,346.71,283.74,342.94,287.33,336.85Z" style="fill:#263238"></path><polygon points="209.03 334.81 212.36 345.56 209.03 346.02 206.03 336.74 209.03 334.81" style="fill:#407BFF"></polygon><path d="M245.82,216.22s-5.89,5.37-.78,5.44c0,0-.46,5.84,1.31,3.51,0,0,.71,4.6,2.81,1.39s.7-10.34.7-10.34l-2.14-.39Z" style="fill:#263238"></path><path d="M245.82,216.22s-5.89,5.37-.78,5.44c0,0-.46,5.84,1.31,3.51,0,0,.71,4.6,2.81,1.39s.7-10.34.7-10.34l-2.14-.39Z" style="opacity:0.30000000000000004"></path><path d="M268.81,215.94c2.3,7.78,3.44,11.05,1,16.3-3.65,8-13.71,9.09-18.28,2.15-4.09-6.25-7.23-17.91-.83-23.65a11.07,11.07,0,0,1,18.1,5.2Z" style="fill:#71403e"></path><path d="M260,223.75c.22.62.08,1.24-.33,1.39s-.91-.24-1.13-.86-.09-1.24.32-1.39S259.82,223.13,260,223.75Z" style="fill:#263238"></path><path d="M253,226.29c.22.62.07,1.25-.33,1.39s-.91-.24-1.14-.86-.08-1.24.32-1.39S252.81,225.67,253,226.29Z" style="fill:#263238"></path><path d="M255.6,226.63a17.8,17.8,0,0,1-.77,4.75,2.82,2.82,0,0,0,2.36-.38Z" style="fill:#561616"></path><path d="M260.29,219.61a.39.39,0,0,1-.41.2c-1.78-.27-3.41,1.39-3.42,1.41a.39.39,0,1,1-.56-.54c.09-.05,1.92-2,4.09-1.64a.39.39,0,0,1,.33.44A.31.31,0,0,1,260.29,219.61Z" style="fill:#263238"></path><path d="M248.54,224.63a.45.45,0,0,1-.39-.07.4.4,0,0,1,0-.55,3.85,3.85,0,0,1,3.25-1.44.39.39,0,0,1-.09.77,3.1,3.1,0,0,0-2.56,1.18A.62.62,0,0,1,248.54,224.63Z" style="fill:#263238"></path><path d="M259,231.82c1.36-.49,3.86-1.51,5.05-2.86a3.57,3.57,0,0,1,.38.93,3.79,3.79,0,0,1,.09,1.77c-.26,1.2-1.24,2.52-4,3.41l-.61.18a27.16,27.16,0,0,0-1.84-3.12S258.42,232,259,231.82Z" style="fill:#2e353a"></path><path d="M264.07,229a3.44,3.44,0,0,1,.38.93c-.59,1.05-2.3,2-4.9,2.84l-.56-.91C260.35,231.33,262.86,230.35,264.07,229Z" style="fill:#fff"></path><path d="M261.64,233.25a9.62,9.62,0,0,1,2.87-1.59c-.26,1.2-1.24,2.52-4,3.41A3.53,3.53,0,0,1,261.64,233.25Z" style="fill:#c15854"></path><path d="M269.33,220.74s-2.81-.06-2.42-3.27c0,0-4.65-.13-4.85-3.54,0,0-4.06,3.6-5.5.79,0,0-5,4.45-5.63,1.5,0,0-5.17,6.42-4.91,2.49,0,0-5.83-.59-.59-5.63,0,0-4.78-4.19,2.95-5.89,0,0-.68-3.7,4.76-1.51,0,0,1.26-4.13,6-1,0,0,2.55-3.8,5.33,1.31,0,0,3.05-2.56,4.36,2.75,0,0,4.12.65,2.88,4.71,0,0,3.41,1.38,1.64,3.93,0,0,3.07,5.3-.33,6.61,0,0,1.18,3.46-1.37,3.7S269.33,220.74,269.33,220.74Z" style="fill:#263238"></path><path d="M273,221.27a6,6,0,0,1-1.86,4.14c-1.52,1.41-3.25.28-3.61-1.65-.33-1.74.06-4.57,2-5.26a2.67,2.67,0,0,1,3.51,2.77Z" style="fill:#71403e"></path><path d="M248,212.58s-8.72,1.74-6.63,6.9,10.91-1.75,10.91-1.75,14-1.66,12.15-7.07S248,212.58,248,212.58Z" style="fill:#407BFF"></path><path d="M248,212.58s-8.72,1.74-6.63,6.9,10.91-1.75,10.91-1.75,14-1.66,12.15-7.07S248,212.58,248,212.58Z" style="fill:#fff;opacity:0.8"></path><path d="M268.92,211.85a3.27,3.27,0,1,1-4.82-1A3.5,3.5,0,0,1,268.92,211.85Z" style="fill:#407BFF"></path><path d="M268.9,212.36a1.88,1.88,0,1,1-2.78-.59A2,2,0,0,1,268.9,212.36Z" style="fill:#fff;opacity:0.5"></path><path d="M243.64,218.67c5.27-3.63,11.66-5.77,17.88-7,1-.2.58-1.71-.41-1.52-6.33,1.24-12.9,3.46-18.26,7.15-.83.57,0,1.94.79,1.36Z"></path><path d="M247.9,348.13l2.21-6.74a.56.56,0,0,1,.6-.39l5.88.58a1,1,0,0,1,.86,1,1.18,1.18,0,0,1,0,.2c-.84,2.42-1.68,4.53-2.67,7.56-1.17,3.57-.45,2.8-1.77,7-.79,2.54-3.82,2.05-3.61.94,1-5.11-.32-6.11-1.45-8.58A2.21,2.21,0,0,1,247.9,348.13Z" style="fill:#263238"></path><path d="M201.43,340.1l2.23,6.73a.58.58,0,0,1-.25.67l-5.08,3a.94.94,0,0,1-1.3-.32.66.66,0,0,1-.09-.19c-.76-2.44-1.34-4.64-2.34-7.66-1.18-3.57-1.31-2.52-2.75-6.7-.87-2.51,1.85-3.92,2.35-2.9,2.23,4.7,3.88,4.72,6.26,6A2.29,2.29,0,0,1,201.43,340.1Z" style="fill:#263238"></path></g></svg>